<svg id="Layer_1" data-name="Layer 1" xmlns="http://www.w3.org/2000/svg" viewBox="0 0 345.848 385.2582"><defs><style>.cls-1,.cls-10,.cls-2,.cls-4,.cls-7,.cls-8,.cls-9{fill:none;}.cls-1,.cls-2{stroke:#231f20;}.cls-1,.cls-10,.cls-2,.cls-4,.cls-6,.cls-7,.cls-8,.cls-9{stroke-miterlimit:10;}.cls-1{stroke-width:2px;}.cls-2,.cls-8{stroke-width:4px;}.cls-3{fill:#fff;}.cls-4,.cls-6,.cls-7,.cls-9{stroke:#496789;}.cls-4{stroke-width:22px;}.cls-5,.cls-6{fill:#e7f6fd;}.cls-10,.cls-6,.cls-7{stroke-width:3px;}.cls-10,.cls-8{stroke:#414042;}.cls-9{stroke-width:7px;}</style></defs><title>mailit</title><path class="cls-1" d="M235.2215,483.275" transform="translate(-329.8051 -154.4269)"/><path class="cls-2" d="M274.2873,328.0833" transform="translate(-329.8051 -154.4269)"/><ellipse class="cls-3" cx="174.5854" cy="213.1883" rx="170.924" ry="168.4179"/><circle class="cls-4" cx="172.9987" cy="211.922" r="157.9845"/><path class="cls-5" d="M672.3415,368.6245a83.4864,83.4864,0,0,0-13.5528,5.9937c-.52.2835-5.8253,8.3786-5.8253,8.3786s-12.1367,3.1083-17.7468,20.8152l-.75,1.8125-14.4138,10.0349s-15.8955-4.7272-29.659.7211-23.3477,19.5753-23.3477,19.5753l-9.7669-.7177-12.8125,2.0561s-6.21-10.4978-23.19-11.299-36.2042,17.3063-36.2042,17.3063l5.8346-6.2144s-17.9525-8.0473-26.48-3.08-7.48,20.5112-7.48,21.4727l1.9157-16.71s-12.388-2.159-18.11,1.3263c-4.8277,2.94-12.8285,16.6654-12.8285,16.6654l10.9181-16.2312a64.3512,64.3512,0,0,0-8.4687-9.0937c-5.5728-5.0477-13.8021-6.8333-13.8021-6.8333s-.84-14.6329-5.1038-18.7992-6.7274-4.8154-15.3962-6.0966c-5.1042-.7543-4.6556-3.8417-6.563-5.364s-4.9034-3.9539-11.4112.0522-5.9957,10.4786-7.1925,10.4786-10.9375-4.5625-10.9375-4.5625,2.4671-5.5487-8.5961-11.89c-9.3125-5.3376-19.2991-12.0653-19.2991-12.0653l-.7922-1.295C342.2764,466.7372,412.2,537.6851,500.7806,537.6851c100.3133,0,166.9157-71.016,173.6951-173.096q.03-.4556.0585-.9117Z" transform="translate(-329.8051 -154.4269)"/><path class="cls-6" d="M558.8227,435.9927s-24.4247-24.5733-35.4658-68.8845c-5.9106-23.7211-16.7121-172.923-16.7121-172.923h-7.44s-10.8015,149.2019-16.7121,172.923c-11.041,44.3113-39.5888,71.3706-39.5888,71.3706" transform="translate(-329.8051 -154.4269)"/><path class="cls-1" d="M397.2873,400.21" transform="translate(-329.8051 -154.4269)"/><path class="cls-7" d="M333.4665,376.937a158.7046,158.7046,0,0,1,20.6586,13.6124c9.508,7.5991,7.0484,20.5579,7.0484,20.5579" transform="translate(-329.8051 -154.4269)"/><path class="cls-7" d="M361.1735,402.2968s8.8105,2.9368,9.9853,2.9368.0734-6.9016,6.461-10.5726,10.4625-1.395,12.3347,0,3.5242,5.2863,3.5242,5.2863" transform="translate(-329.8051 -154.4269)"/><path class="cls-7" d="M384.9619,405.2337s3.1938-6.1307,11.7474-5.2863,11.9676,3.5242,16.1526,7.3421,3.5242,17.0337,3.5242,17.0337,9.2143,2.1292,14.6842,6.7547a31.2967,31.2967,0,0,1,7.6358,9.1042" transform="translate(-329.8051 -154.4269)"/><path class="cls-7" d="M429.0144,453.9852s7.8531-12.5771,12.5917-15.2716c5.6167-3.1938,18.2451,0,18.2451,0" transform="translate(-329.8051 -154.4269)"/><path class="cls-7" d="M457.5018,452.81c0-.8811-1.0279-15.1247,7.3421-19.6768s25.991,2.8222,25.991,2.8222" transform="translate(-329.8051 -154.4269)"/><path class="cls-7" d="M485.1081,441.65s18.8692-16.5931,35.5357-15.8589,22.9073,11.16,22.9073,11.16" transform="translate(-329.8051 -154.4269)"/><path class="cls-7" d="M520.7907,456.1878s9.251-17.9147,23.7884-19.2363,15.4184-3.2424,26.5784.3426c4.4613,1.4331,9.3979,6.8526,9.3979,6.8526" transform="translate(-329.8051 -154.4269)"/><path class="cls-7" d="M569.9827,452.81s3.5242-8.2231,15.2716-8.2231,14.0153,2.9422,16.4463,5.8737c5.0357,6.0726,5.2863,17.3273,5.2863,17.3273" transform="translate(-329.8051 -154.4269)"/><path class="cls-7" d="M567.0459,435.9558s7.9295-13.9822,21.4389-18.9748,29.1114-.6608,29.1114-.6608" transform="translate(-329.8051 -154.4269)"/><path class="cls-7" d="M609.0427,440.9163s-1.9089-8.9574,4.9926-19.3831,19.1119-14.2437,19.1119-14.2437" transform="translate(-329.8051 -154.4269)"/><path class="cls-7" d="M637.8237,432.6931c.2937-.1468-9.765-10.4992-4.2584-26.7252s19.9184-23.5036,19.9184-23.5036" transform="translate(-329.8051 -154.4269)"/><path class="cls-7" d="M649.4976,402.2968c.8506-3.992.2937.9545,3.01-15.7121S671.45,369.5511,671.45,369.5511" transform="translate(-329.8051 -154.4269)"/><path class="cls-7" d="M450.4534,496.863s.4405-11.7474,7.6358-15.8589,16.6847-5.9234,16.6847-5.9234" transform="translate(-329.8051 -154.4269)"/><path class="cls-7" d="M472.7725,477.8082s6.4619-9.873,12.3355-10.754,17.6957,1.3008,17.6957,1.3008" transform="translate(-329.8051 -154.4269)"/><path class="cls-7" d="M488.6323,499.3594s1.3216-36.71,32.1584-36.71c34.361.9319,38.0321,20.9984,38.0321,20.9984" transform="translate(-329.8051 -154.4269)"/><path class="cls-7" d="M547.883,467.7883a19.7649,19.7649,0,0,1,18.5755-8.9574,27.4481,27.4481,0,0,1,19.53,10.8663" transform="translate(-329.8051 -154.4269)"/><circle class="cls-8" cx="172.924" cy="212.3342" r="170.924"/><rect class="cls-3" x="129.5248" y="1.7168" width="86.5408" height="86.5408" rx="11.5694" ry="11.5694"/><rect class="cls-9" x="132.9078" y="5.0998" width="80.2898" height="80.2898" rx="9.6984" ry="9.6984"/><path class="cls-10" d="M459.4137,173.7234l36.2792,34.2238a14.7247,14.7247,0,0,0,8.5258,2.6069c3.0645-.0379,5.92-2.4769,5.92-2.4769l35.6647-33.7919" transform="translate(-329.8051 -154.4269)"/><line class="cls-10" x1="156.815" y1="44.9872" x2="129.5248" y2="70.774"/><line class="cls-10" x1="188.6241" y1="45.7704" x2="216.3232" y2="72.503"/><rect class="cls-10" x="129.8311" y="1.5" width="86.5408" height="86.5408" rx="11.5694" ry="11.5694"/></svg>